<svg viewBox="0.0 0.0 315.3280839895013 103.79527559055119" fill="none" stroke-linecap="square" stroke-miterlimit="10" xmlns="http://www.w3.org/2000/svg"><clipPath id="a"><path d="M0 0h315.328v103.795H0V0z"/></clipPath><g clip-path="url(#a)"><path d="M0 0h315.328v103.795H0z"/><path fill="#fff" d="M0 92.63V64.378c0-15.603 31.622-28.252 70.63-28.252 39.008 0 70.63 12.649 70.63 28.252V92.63z"/><path fill="#fff" d="M83.895 92.63V46.315C83.895 20.735 117.759 0 159.533 0c41.773 0 75.638 20.736 75.638 46.315V92.63z"/><path fill="#fff" d="M168.41 92.63V67.984c0-13.611 31.622-24.645 70.63-24.645 39.007 0 70.63 11.034 70.63 24.645V92.63z"/><path fill="#434343" d="M130.48 25.084a5.386 5.386 0 1 1 10.772 0 5.386 5.386 0 1 1-10.772 0zm20.27-.328a5.386 5.386 0 1 1 10.772 0 5.386 5.386 0 0 1-10.772 0z"/><path fill="#e65b91" d="M117.262 32.97c0-.722 3.75-1.308 8.378-1.308 4.627 0 8.378.586 8.378 1.307 0 .722-3.751 1.308-8.378 1.308-4.627 0-8.378-.586-8.378-1.308zm36.693.328c0-.722 3.751-1.307 8.378-1.307 4.627 0 8.378.585 8.378 1.307s-3.75 1.307-8.378 1.307c-4.627 0-8.378-.585-8.378-1.307z"/><path fill="#434343" d="M150.358 31.86c0 2.609-2.411 4.724-5.386 4.724-2.974 0-5.386-2.115-5.386-4.724 1.272 1.487 3.267 2.362 5.386 2.362 2.12 0 4.115-.875 5.386-2.362z"/></g></svg>