<svg viewBox="0.0 0.0 1014.0971128608924 348.46194225721786" fill="none" stroke-linecap="square" stroke-miterlimit="10" xmlns="http://www.w3.org/2000/svg"><clipPath id="a"><path d="M0 0h1014.097v348.462H0V0z"/></clipPath><g clip-path="url(#a)"><path d="M0 0h1014.097v348.462H0z"/><path fill="#b45f06" d="M673.15 216.632v-37.399H680v37.4z"/><path stroke="#783f04" stroke-linejoin="round" stroke-linecap="butt" d="M673.15 216.632v-37.399H680v37.4z"/><path d="M675.903 217.016c0-12.596-.686-25.315-.123-37.786"/><path stroke="#783f04" stroke-linejoin="round" stroke-linecap="butt" d="M675.903 217.016c0-12.596-.686-25.315-.123-37.786"/><path d="M676.816 179.032c-.152 12.587.38 25.38-.334 37.774"/><path stroke="#783f04" stroke-linejoin="round" stroke-linecap="butt" d="M676.816 179.032c-.152 12.587.38 25.38-.334 37.774"/><path d="M678.84 216.826c0-12.596-.687-25.316-.123-37.786"/><path stroke="#783f04" stroke-linejoin="round" stroke-linecap="butt" d="M678.84 216.826c0-12.596-.687-25.316-.123-37.786"/><path d="M679.157 179.04c0 12.596.686 25.316.123 37.786"/><path stroke="#783f04" stroke-linejoin="round" stroke-linecap="butt" d="M679.157 179.04c0 12.596.686 25.316.123 37.786"/><path d="M674.296 216.826c0-12.596-.686-25.316-.122-37.786"/><path stroke="#783f04" stroke-linejoin="round" stroke-linecap="butt" d="M674.296 216.826c0-12.596-.686-25.316-.122-37.786"/><path fill="#ccc" d="M659.415 181.996h34.488V201.9h-34.488z"/><path stroke="#d6d6d6" stroke-linejoin="round" stroke-linecap="butt" d="M659.415 181.996h34.488V201.9h-34.488z"/><path d="M659.06 189.996c11.616 0 23.346-1.994 34.846-.357"/><path stroke="#d6d6d6" stroke-linejoin="round" stroke-linecap="butt" d="M659.06 189.996c11.616 0 23.346-1.994 34.846-.357"/><path d="M694.089 192.648c-11.608-.443-23.405 1.104-34.835-.971"/><path stroke="#d6d6d6" stroke-linejoin="round" stroke-linecap="butt" d="M694.089 192.648c-11.608-.443-23.405 1.104-34.835-.971"/><path d="M659.237 198.527c11.615 0 23.345-1.994 34.845-.357"/><path stroke="#d6d6d6" stroke-linejoin="round" stroke-linecap="butt" d="M659.237 198.527c11.615 0 23.345-1.994 34.845-.357"/><path d="M694.082 199.449c-11.616 0-23.346 1.994-34.845.357"/><path stroke="#d6d6d6" stroke-linejoin="round" stroke-linecap="butt" d="M694.082 199.449c-11.616 0-23.346 1.994-34.845.357"/><path d="M659.237 185.328c11.615 0 23.345-1.995 34.845-.357"/><path stroke="#d6d6d6" stroke-linejoin="round" stroke-linecap="butt" d="M659.237 185.328c11.615 0 23.345-1.995 34.845-.357"/><path fill="#999" d="M665.092 187.836v-2.82h-.952l1.905-1.905 1.906 1.906h-.953v2.819z"/><path stroke="#666" stroke-linejoin="round" stroke-linecap="butt" d="M665.092 187.836v-2.82h-.952l1.905-1.905 1.906 1.906h-.953v2.819z"/><path fill="#999" d="M663.683 191.185h2.819v-.953l1.905 1.906-1.905 1.905v-.953h-2.82z"/><path stroke="#666" stroke-linejoin="round" stroke-linecap="butt" d="M663.683 191.185h2.819v-.953l1.905 1.906-1.905 1.905v-.953h-2.82z"/><path fill="#999" d="M665.045 195.684l1.984 1.984.677-.677v2.709h-2.708l.677-.677-1.984-1.985z"/><path stroke="#666" stroke-linejoin="round" stroke-linecap="butt" d="M665.045 195.684l1.984 1.984.677-.677v2.709h-2.708l.677-.677-1.984-1.985z"/><path d="M670.528 186.235c.607-.237 2.65-1.438 3.643-1.423.993.015 1.542 1.29 2.312 1.512.77.222 1.406.088 2.31-.179.904-.266 2.402-1.227 3.113-1.42.711-.192.785.148 1.155.266.37.118.428.354 1.065.443.637.089 1.823 0 2.756.09.934.089 2.371.371 2.845.446"/><path stroke="#666" stroke-linejoin="round" stroke-linecap="butt" stroke-dasharray="8.0,3.0,1.0,3.0" d="M670.528 186.235c.607-.237 2.65-1.438 3.643-1.423.993.015 1.542 1.29 2.312 1.512.77.222 1.406.088 2.31-.179.904-.266 2.402-1.227 3.113-1.42.711-.192.785.148 1.155.266.37.118.428.354 1.065.443.637.089 1.823 0 2.756.09.934.089 2.371.371 2.845.446"/><path d="M691.15 192.812c-.607-.237-2.65-1.437-3.643-1.422-.993.014-1.542 1.29-2.312 1.511-.77.223-1.406.088-2.31-.178-.904-.267-2.402-1.228-3.113-1.42-.711-.193-.785.147-1.155.265-.37.118-.428.355-1.065.444-.637.088-1.823 0-2.756.089-.934.09-2.371.372-2.845.446"/><path stroke="#666" stroke-linejoin="round" stroke-linecap="butt" stroke-dasharray="8.0,3.0" d="M691.15 192.812c-.607-.237-2.65-1.437-3.643-1.422-.993.014-1.542 1.29-2.312 1.511-.77.223-1.406.088-2.31-.178-.904-.267-2.402-1.228-3.113-1.42-.711-.193-.785.147-1.155.265-.37.118-.428.355-1.065.444-.637.088-1.823 0-2.756.089-.934.09-2.371.372-2.845.446"/><path d="M671.15 198.77c.904-.237 4.045-1.733 5.423-1.422 1.377.31 2.072 2.889 2.842 3.289.77.4 1.142-.52 1.78-.89.637-.37 1.2-1.111 2.044-1.333.845-.223 2.073-.045 3.021 0 .948.044 2.222.223 2.667.267"/><path stroke="#666" stroke-linejoin="round" stroke-linecap="butt" stroke-dasharray="4.0,3.0" d="M671.15 198.77c.904-.237 4.045-1.733 5.423-1.422 1.377.31 2.072 2.889 2.842 3.289.77.4 1.142-.52 1.78-.89.637-.37 1.2-1.111 2.044-1.333.845-.223 2.073-.045 3.021 0 .948.044 2.222.223 2.667.267"/><path fill="#783f04" d="M557.257 137.81h8.972v27.677h-8.972z"/><path fill="#274e13" d="M545.056 143.673l16.687-59.832 16.687 59.832z"/><path fill="#6aa84f" d="M281.276 349.437v-111.37c0-61.508 75.984-111.37 169.716-111.37 93.732 0 169.717 49.862 169.717 111.37v111.37z"/><path fill="#783f04" d="M377.995 190.812h11.464v37.764h-11.464z"/><path fill="#38761d" d="M279.675 349.437v-75.811c0-41.87 118.577-75.811 264.85-75.811 146.273 0 264.85 33.942 264.85 75.811v75.811z"/><path fill="#274e13" d="M362.404 206.812l21.323-81.637 21.323 81.637z"/><path fill="#783f04" d="M444.635 165.92H456.1v37.763h-11.465z"/><path fill="#274e13" d="M429.045 181.92l21.322-81.638 21.323 81.638z"/><path fill="#434343" d="M403.864 216.16c0-4.67 9.547-8.457 21.323-8.457s21.323 3.786 21.323 8.457c0 4.67-9.547 8.457-21.323 8.457s-21.323-3.787-21.323-8.457z"/><path fill="#783f04" d="M420.971 168.702h10.803v47.024h-10.803z"/><path fill="#274e13" d="M405.05 192.701l21.323-81.638 21.323 81.638z"/><path fill="#434343" d="M336.288 237.033c0-4.67 9.547-8.456 21.323-8.456s21.323 3.786 21.323 8.456-9.547 8.457-21.323 8.457-21.323-3.786-21.323-8.457z"/><path fill="#783f04" d="M351.88 200.01h11.464v37.765h-11.465z"/><path fill="#274e13" d="M336.289 208.01l21.323-81.637 21.322 81.638z"/><path fill="#3c78d8" d="M447.06 224.382c0-3.713 11.955-7.274 33.233-9.9 21.28-2.625 50.14-4.1 80.232-4.1 62.665 0 113.464 6.268 113.464 14s-50.8 14-113.464 14c-62.665 0-113.465-6.268-113.465-14z"/><path fill="#3c78d8" d="M479.871 224.925c0-2.243 7.961-4.394 22.131-5.98 14.17-1.586 33.389-2.476 53.428-2.476 41.73 0 75.56 3.786 75.56 8.456s-33.83 8.457-75.56 8.457c-41.73 0-75.559-3.786-75.559-8.457z"/><path stroke="#6d9eeb" stroke-width="2" stroke-linejoin="round" stroke-linecap="butt" d="M479.871 224.925c0-2.243 7.961-4.394 22.131-5.98 14.17-1.586 33.389-2.476 53.428-2.476 41.73 0 75.56 3.786 75.56 8.456s-33.83 8.457-75.56 8.457c-41.73 0-75.559-3.786-75.559-8.457z"/><path fill="#3c78d8" d="M519.044 224.524c0-1.024 3.632-2.005 10.096-2.729 6.465-.723 15.233-1.13 24.376-1.13 19.039 0 34.473 1.728 34.473 3.859 0 2.13-15.434 3.858-34.473 3.858s-34.472-1.728-34.472-3.858z"/><path stroke="#6d9eeb" stroke-width="2" stroke-linejoin="round" stroke-linecap="butt" d="M519.044 224.524c0-1.024 3.632-2.005 10.096-2.729 6.465-.723 15.233-1.13 24.376-1.13 19.039 0 34.473 1.728 34.473 3.859 0 2.13-15.434 3.858-34.473 3.858s-34.472-1.728-34.472-3.858z"/><path fill="#666" d="M517.869 154.878c0-3.688 6.268-6.678 14-6.678 7.733 0 14.001 2.99 14.001 6.678 0 3.689-6.268 6.679-14 6.679-7.733 0-14.001-2.99-14.001-6.679z"/><path fill="#783f04" d="M533.357 127.535h7.528v29.822h-7.528z"/><path fill="#274e13" d="M523.12 133.853l14.001-64.47 14 64.47zM416.06 348.6l36.819-142.82 36.819 142.788z"/><path d="M468.11 86.444c-3.69 2.355 4.988 6.778 6.024 10.604.997 3.679-2.079 7.997-5.623 10.264"/><path stroke="#000" stroke-width="2" stroke-linejoin="round" stroke-linecap="butt" d="M468.11 86.444c-3.69 2.355 4.988 6.778 6.024 10.604.997 3.679-2.079 7.997-5.623 10.264"/><path fill="#c00" d="M460.076 78.45c0-5.006 3.598-9.065 8.037-9.065 2.132 0 4.176.955 5.683 2.655 1.508 1.7 2.354 4.006 2.354 6.41 0 5.007-3.598 9.065-8.037 9.065-4.439 0-8.037-4.058-8.037-9.065z"/><path stroke="#600" stroke-linejoin="round" stroke-linecap="butt" d="M460.076 78.45c0-5.006 3.598-9.065 8.037-9.065 2.132 0 4.176.955 5.683 2.655 1.508 1.7 2.354 4.006 2.354 6.41 0 5.007-3.598 9.065-8.037 9.065-4.439 0-8.037-4.058-8.037-9.065z"/><path fill="#666" d="M468.872 139.852c0-1.197 2.957-2.167 6.604-2.167 3.648 0 6.605.97 6.605 2.167 0 1.196-2.957 2.166-6.605 2.166-3.647 0-6.604-.97-6.604-2.166z"/><path d="M492.45 101.613c0 5.72 4.611 11.99 1.605 17.104"/><path stroke="#000" stroke-width="2" stroke-linejoin="round" stroke-linecap="butt" d="M492.45 101.613c0 5.72 4.611 11.99 1.605 17.104"/><path fill="#ffe599" d="M483.221 93.491c0-5.007 3.599-9.065 8.038-9.065 2.131 0 4.176.955 5.683 2.655 1.507 1.7 2.354 4.006 2.354 6.41 0 5.007-3.598 9.065-8.037 9.065-4.44 0-8.038-4.058-8.038-9.065z"/><path stroke="#f1c232" stroke-linejoin="round" stroke-linecap="butt" d="M483.221 93.491c0-5.007 3.599-9.065 8.038-9.065 2.131 0 4.176.955 5.683 2.655 1.507 1.7 2.354 4.006 2.354 6.41 0 5.007-3.598 9.065-8.037 9.065-4.44 0-8.038-4.058-8.038-9.065z"/><path fill="#666" d="M487 148.862c0-1.196 2.957-2.166 6.605-2.166 3.647 0 6.604.97 6.604 2.166 0 1.197-2.957 2.167-6.604 2.167-3.648 0-6.605-.97-6.605-2.167z"/><path fill="#6d9eeb" d="M505.264 81.89c0-5.006 3.598-9.065 8.037-9.065 2.132 0 4.176.955 5.683 2.655 1.508 1.7 2.354 4.006 2.354 6.41 0 5.007-3.598 9.066-8.037 9.066-4.439 0-8.037-4.059-8.037-9.065z"/><path stroke="#0b5394" stroke-linejoin="round" stroke-linecap="butt" d="M505.264 81.89c0-5.006 3.598-9.065 8.037-9.065 2.132 0 4.176.955 5.683 2.655 1.508 1.7 2.354 4.006 2.354 6.41 0 5.007-3.598 9.066-8.037 9.066-4.439 0-8.037-4.059-8.037-9.065z"/><path d="M513.68 91.298c1.89 8.058-6.994 18.057-1.205 24.63"/><path stroke="#000" stroke-width="2" stroke-linejoin="round" stroke-linecap="butt" d="M513.68 91.298c1.89 8.058-6.994 18.057-1.205 24.63"/><path fill="#666" d="M503.518 143.292c0-1.197 2.957-2.167 6.605-2.167 3.647 0 6.604.97 6.604 2.167 0 1.197-2.957 2.167-6.604 2.167-3.648 0-6.605-.97-6.605-2.167z"/><path fill="#274e13" d="M520.06 348.6l36.819-142.82 36.819 142.788z"/><path fill="#3d85c6" d="M6.84 349.286L230.854 9.906l224.013 339.38z"/><path fill="#f3f3f3" d="M135.465 150.004L230.142 6.35l94.677 143.654z"/><path stroke="#efefef" stroke-width="3" stroke-linejoin="round" stroke-linecap="butt" d="M135.465 150.004L230.142 6.35l94.677 143.654z"/><path fill="#b2c3d2" d="M135.56 150.712l-28.447 42.67 39.113-17.066-6.4 36.268 39.114-33.426 30.58 43.381 14.223-51.913 17.777 22.044 18.49-21.333 21.334 40.535 9.958-44.092 19.2 21.336v-23.47l30.58 26.313-12.801-23.467 17.78 12.089-18.491-28.446z"/><path stroke="#b2c3d2" stroke-linejoin="round" stroke-linecap="butt" d="M135.56 150.712l-28.447 42.67 39.113-17.066-6.4 36.268 39.114-33.426 30.58 43.381 14.223-51.913 17.777 22.044 18.49-21.333 21.334 40.535 9.958-44.092 19.2 21.336v-23.47l30.58 26.313-12.801-23.467 17.78 12.089-18.491-28.446z"/><path fill="#bdcede" fill-opacity=".9" d="M194.228 60.043l-60.092 92.092 15.646-1.777.711 17.78 49.069-16.715 16.714 10.67 13.511-9.247 15.643 20.625 32.714-19.557 17.78 3.911 2.134-4.979 22.756 15.646-1.066-12.09 14.22 4.268-73.246-108.806z"/><path stroke="#bdcede" stroke-linejoin="round" stroke-linecap="butt" d="M194.228 60.043l-60.092 92.092 15.646-1.777.711 17.78 49.069-16.715 16.714 10.67 13.511-9.247 15.643 20.625 32.714-19.557 17.78 3.911 2.134-4.979 22.756 15.646-1.066-12.09 14.22 4.268-73.246-108.806z"/><path fill="#cfe2f3" fill-opacity=".735" d="M229.787 5.639l-35.559 53.336 2.134 24.535 12.09-14.934 1.779 27.023 14.577-35.913 7.822 12.8 2.134-18.845 13.869 39.824 4.265-22.044 15.645 16.357-4.265-19.202 14.578 12.089z"/><path stroke="#cfe2f3" stroke-linejoin="round" stroke-linecap="butt" d="M229.787 5.639l-35.559 53.336 2.134 24.535 12.09-14.934 1.779 27.023 14.577-35.913 7.822 12.8 2.134-18.845 13.869 39.824 4.265-22.044 15.645 16.357-4.265-19.202 14.578 12.089z"/><path fill="#45818e" d="M564.297 349.433l222.589-211.91 222.59 211.91z"/><path fill="#fbfbfb" fill-opacity=".592" d="M787.89 153.44c-49.119.825-131.978 103.638-150.665 125.86-18.687 22.221 24.658 7.884 38.543 7.47 13.886-.414 34.583-10.725 44.77-9.954 10.187.772 8.24 13.633 16.352 14.582 8.111.95 21.738-4.502 32.315-8.887 10.577-4.384 20.96-17.065 31.146-17.42 10.187-.354 18.556 10.254 29.976 15.292 11.42 5.038 28.031 12.862 38.543 14.938 10.512 2.075 21.024.358 24.527-2.486 3.504-2.845-6.36-12.803-3.506-14.58 2.856-1.778 13.888 3.973 20.637 3.915 6.748-.059 16.286-2.962 19.855-4.266 3.568-1.304 25.306 17.188 1.557-3.556-23.749-20.745-94.93-121.734-144.05-120.909z"/><path stroke="#f3f3f3" stroke-linejoin="round" stroke-linecap="butt" d="M787.89 153.44c-49.119.825-131.978 103.638-150.665 125.86-18.687 22.221 24.658 7.884 38.543 7.47 13.886-.414 34.583-10.725 44.77-9.954 10.187.772 8.24 13.633 16.352 14.582 8.111.95 21.738-4.502 32.315-8.887 10.577-4.384 20.96-17.065 31.146-17.42 10.187-.354 18.556 10.254 29.976 15.292 11.42 5.038 28.031 12.862 38.543 14.938 10.512 2.075 21.024.358 24.527-2.486 3.504-2.845-6.36-12.803-3.506-14.58 2.856-1.778 13.888 3.973 20.637 3.915 6.748-.059 16.286-2.962 19.855-4.266 3.568-1.304 25.306 17.188 1.557-3.556-23.749-20.745-94.93-121.734-144.05-120.909z"/><path fill="#fff" fill-opacity=".769" d="M787.406 132.1c-36.454-.297-92.701 82.078-107.62 100.627-14.917 18.549 11.321 10.489 18.112 10.667 6.792.178 16.136-11.614 22.637-9.599 6.501 2.015 5.052 18.844 16.371 21.688 11.32 2.844 37.267-.592 51.546-4.622 14.28-4.03 24.089-17.601 34.13-19.557 10.043-1.955 17.126 6.52 26.123 7.825 8.998 1.304 20.666.83 27.863 0 7.198-.83 11.666-4.209 15.323-4.98 3.657-.77 24.034 17.366 6.62.358-17.414-17.009-74.651-102.11-111.105-102.407z"/><path stroke="#f3f3f3" stroke-linejoin="round" stroke-linecap="butt" d="M787.406 132.1c-36.454-.297-92.701 82.078-107.62 100.627-14.917 18.549 11.321 10.489 18.112 10.667 6.792.178 16.136-11.614 22.637-9.599 6.501 2.015 5.052 18.844 16.371 21.688 11.32 2.844 37.267-.592 51.546-4.622 14.28-4.03 24.089-17.601 34.13-19.557 10.043-1.955 17.126 6.52 26.123 7.825 8.998 1.304 20.666.83 27.863 0 7.198-.83 11.666-4.209 15.323-4.98 3.657-.77 24.034 17.366 6.62.358-17.414-17.009-74.651-102.11-111.105-102.407z"/><path fill="#fff" d="M783.51 122.324c-21.69-.949-53.87 44.742-62.226 55.824-8.356 11.082 6.225 10.135 12.092 10.67 5.867.533 13.391-6.52 23.11-7.468 9.719-.948 25.187.414 35.202 1.777 10.015 1.363 17.541 4.09 24.89 6.401 7.348 2.312 13.987 6.875 19.202 7.468 5.215.592 9.481-1.72 12.09-3.914 2.607-2.193 14.282 2.55 3.556-9.244-10.727-11.793-46.226-60.566-67.917-61.514z"/><path fill="#b7b7b7" d="M893.061 281.643c.543-.544-.653-2.782-3.327-6.223s-6.605-7.803-10.929-12.127c-9.005-9.003-17.221-15.384-18.352-14.253-1.131 1.131 5.251 9.346 14.256 18.35 9.005 9.002 17.221 15.384 18.352 14.253zm25.515.033c.543-.543-.654-2.781-3.328-6.222-2.673-3.442-6.604-7.804-10.929-12.127-9.004-9.003-17.22-15.384-18.352-14.253-1.13 1.13 5.252 9.346 14.256 18.349 9.005 9.003 17.222 15.384 18.353 14.253z"/><path fill="#b37a39" d="M931.617 251.851c1.712-1.283 2.49-3.468 2.004-5.63a6.141 6.141 0 0 0-4.285-4.528c.384-1.356.095-2.847-.78-4.02-.874-1.175-2.232-1.894-3.662-1.94.375-1.204.092-2.548-.748-3.554-.84-1.007-2.12-1.534-3.384-1.396.088-1.584-.75-3.127-2.152-3.96-1.402-.832-3.116-.806-4.4.068-1.155-.679-2.523-.838-3.75-.437a4.227 4.227 0 0 0-2.652 2.53c-2.019.213-3.717 1.49-4.462 3.352-.744 1.863-.422 4.032.845 5.698-1.213 1.234-1.63 3.062-1.089 4.781a5.268 5.268 0 0 0 3.696 3.504c-1 1.931-.767 4.32.598 6.135 1.364 1.814 3.616 2.73 5.782 2.35a7.005 7.005 0 0 0 3.144 4.146c1.543.93 3.366 1.215 5.057.794.995 1.243 2.628 1.774 4.088 1.329 1.46-.445 2.438-1.771 2.447-3.32 1.557.44 3.173-.159 4.008-1.483.834-1.325.697-3.075-.34-4.339z"/><path d="M927.914 257.753a3.927 3.927 0 0 1-1.902-1.217m-4.633 3.208a3.968 3.968 0 0 1-.518-.846m-7.683-4.094c.4-.07.788-.183 1.16-.336m-7.54-8.149c.182-.352.402-.682.656-.984m-3.262-7.3c1.291-1.315 3.262-1.729 5.067-1.066m-1.45-7.985a4.44 4.44 0 0 0-.259 2.04m6.66-4.133a3.737 3.737 0 0 0-.59.496m7.142 3.396a3.981 3.981 0 0 1-.236 1.15m4.368 3.8a3.48 3.48 0 0 1-.376.817m4.818 5.144a5.858 5.858 0 0 0-1.38-.221m3.661 10.378a5.346 5.346 0 0 1-.749.47"/><path fill="#7f6000" d="M912.194 262.51l-1.595-1.595-5.292 5.292 1.595 1.595zm3.323 2.526l-1.595-1.594-5.292 5.292 1.595 1.595z"/><path fill="#b37a39" d="M915.525 259.283c.709-.66 1.305-1.418 1.536-1.953.23-.535.055-.754-.452-.563.342-.453.514-.83.465-1.016-.05-.187-.315-.16-.716.07.313-.408.462-.743.394-.888-.069-.144-.344-.076-.73.18.297-.469.32-.767.062-.765-.258.001-.753.302-1.27.771-.214.004-.578.192-.997.516a7.31 7.31 0 0 0-1.19 1.177c-.615.406-1.319 1.061-1.85 1.721-.531.66-.81 1.226-.732 1.485-.558.56-.99 1.155-1.13 1.554-.138.4.037.54.458.37-.615.724-.957 1.367-.877 1.653.08.286.567.162 1.252-.316-.161.412-.093.646.19.648.282.002.754-.228 1.31-.637.072.185.448.058.942-.319.494-.377 1-.923 1.267-1.368.37-.14.935-.587 1.4-1.109.465-.521.725-.998.644-1.182z"/><path d="M913.457 261.603c-.174.066-.291.058-.336-.023m-1.873 1.71a.28.28 0 0 1-.003-.154m-1.497.143c.126-.089.256-.187.388-.295m-.762-1.042c.112-.131.231-.263.355-.393m.316-1.53c.593-.597 1.228-1.052 1.63-1.171m.951-2.036c-.18.226-.324.44-.423.628m2.611-2.32a6.81 6.81 0 0 0-.253.242m1.462-.25a4.36 4.36 0 0 1-.264.37m.6.34a5.267 5.267 0 0 1-.248.298m.498.647c-.107.04-.227.099-.357.173m-.727 2.343c-.098.09-.196.178-.294.262"/><path fill="#b37a39" d="M916.883 258.785c.46-.393.773-.926.804-1.373.03-.447-.225-.729-.658-.727.172-.324.203-.636.085-.84-.118-.203-.372-.275-.686-.194.16-.29.184-.569.062-.738-.121-.168-.37-.203-.658-.092.12-.356.034-.643-.223-.738-.257-.094-.637.022-.977.297-.212-.076-.504-.024-.801.143a2.11 2.11 0 0 0-.748.73c-.46.176-.918.567-1.202 1.026-.283.46-.351.919-.177 1.206-.348.35-.557.781-.547 1.127.01.345.236.551.593.538-.345.491-.446 1.004-.26 1.318.185.314.624.373 1.127.15-.007.35.148.609.43.715.282.107.666.054 1.067-.148.14.212.468.225.82.033.35-.192.652-.548.753-.89.316-.003.711-.239.98-.585.27-.347.352-.725.203-.938z"/><path d="M915.687 260.327c-.15.001-.269-.05-.343-.147m-1.23 1.005a.412.412 0 0 1-.06-.153m-1.437-.414c.093-.041.186-.09.278-.149m-1.145-1.319a2.52 2.52 0 0 1 .208-.26m-.254-1.405c.37-.373.832-.59 1.188-.56m.19-1.673a1.46 1.46 0 0 0-.187.468m1.737-1.34a1.95 1.95 0 0 0-.162.147m1.361.294c-.03.09-.072.18-.125.27m.722.56a1.54 1.54 0 0 1-.135.205m.736.83c-.092 0-.19.013-.291.039m.145 2.06a2.609 2.609 0 0 1-.196.152"/><path fill="#b37a39" d="M920.343 261.177c.708-.66 1.305-1.418 1.535-1.953.23-.535.056-.754-.451-.562.342-.454.514-.831.464-1.017-.049-.187-.314-.16-.715.07.313-.407.461-.743.393-.888-.068-.144-.344-.076-.729.18.296-.469.32-.766.062-.765-.259.002-.754.302-1.27.772-.214.003-.578.19-.998.515a7.31 7.31 0 0 0-1.19 1.177c-.614.406-1.318 1.062-1.85 1.722-.53.66-.81 1.225-.732 1.485-.558.56-.99 1.154-1.129 1.553-.139.4.036.54.458.37-.616.724-.958 1.367-.878 1.653.08.286.568.163 1.252-.316-.16.412-.092.646.19.648.283.002.755-.228 1.31-.637.073.185.449.058.943-.319.493-.377 1-.923 1.267-1.368.37-.14.934-.587 1.4-1.109.464-.521.724-.998.644-1.182z"/><path d="M918.275 263.497c-.175.067-.292.059-.336-.023m-1.873 1.71a.28.28 0 0 1-.004-.154m-1.497.143c.126-.089.257-.187.389-.295m-.763-1.041a9.22 9.22 0 0 1 .356-.394m.315-1.53c.594-.597 1.229-1.052 1.631-1.17m.95-2.037c-.18.226-.324.44-.422.628m2.61-2.32a8.18 8.18 0 0 0-.253.242m1.462-.25a4.33 4.33 0 0 1-.264.37m.6.34a5.262 5.262 0 0 1-.248.298m.499.648c-.107.04-.227.098-.357.172m-.727 2.343c-.098.09-.197.178-.295.262"/><path fill="#7f6000" d="M899.686 249.473l-1.595-1.595-5.293 5.293 1.595 1.595z"/><path fill="#b37a39" d="M921.7 260.68c.461-.394.773-.927.804-1.374.031-.447-.224-.729-.658-.727.172-.324.204-.635.086-.839-.119-.204-.373-.276-.686-.195.16-.29.183-.569.062-.737-.122-.17-.37-.204-.659-.092.121-.356.034-.644-.222-.738-.257-.095-.638.02-.978.296-.211-.076-.504-.024-.8.143a2.11 2.11 0 0 0-.749.73c-.46.176-.917.567-1.201 1.026-.284.46-.351.919-.178 1.206-.347.35-.556.782-.547 1.127.01.345.237.551.593.538-.344.491-.446 1.005-.26 1.318.185.314.625.373 1.128.15-.007.351.148.609.43.716.281.106.666.053 1.067-.148.14.21.467.224.819.032.351-.192.652-.548.753-.89.316-.003.712-.239.981-.585.27-.346.351-.725.203-.938z"/><path d="M920.504 262.221c-.149.001-.268-.05-.342-.147m-1.23 1.006a.412.412 0 0 1-.06-.154m-1.437-.414c.093-.04.186-.09.278-.148m-1.146-1.32a2.82 2.82 0 0 1 .208-.26m-.254-1.405c.37-.373.832-.59 1.189-.56m.19-1.673a1.44 1.44 0 0 0-.188.468m1.737-1.34c-.056.046-.11.095-.162.148m1.362.294a1.41 1.41 0 0 1-.126.269m.723.56a1.54 1.54 0 0 1-.135.205m.735.83c-.091 0-.189.013-.29.039m.145 2.06a2.609 2.609 0 0 1-.196.152"/><path fill="#7f6000" d="M903.54 252l-1.595-1.594-5.293 5.293 1.595 1.594z"/><path fill="#b37a39" d="M903.678 246.1c.708-.66 1.305-1.418 1.535-1.953.23-.535.056-.753-.451-.562.342-.454.514-.83.464-1.017-.05-.186-.314-.16-.715.071.313-.408.461-.744.393-.888-.068-.145-.344-.077-.729.179.296-.468.32-.766.062-.765-.259.002-.754.302-1.27.772-.214.003-.578.191-.998.516a7.31 7.31 0 0 0-1.19 1.176c-.614.406-1.318 1.062-1.85 1.722-.53.66-.81 1.225-.732 1.485-.558.56-.99 1.154-1.129 1.553-.139.4.036.541.458.37-.616.724-.958 1.367-.878 1.653.08.286.568.163 1.252-.316-.16.412-.092.646.19.648.283.002.755-.227 1.31-.637.073.185.449.058.942-.319.494-.377 1-.923 1.268-1.367.37-.14.934-.588 1.4-1.11.464-.52.724-.998.644-1.182z"/><path d="M901.61 248.42c-.175.067-.292.059-.336-.022m-1.873 1.709a.28.28 0 0 1-.004-.153m-1.497.142a6.89 6.89 0 0 0 .389-.294m-.763-1.042c.112-.132.232-.264.356-.394m.315-1.53c.594-.597 1.228-1.052 1.631-1.17m.95-2.037c-.18.226-.324.44-.422.628m2.61-2.32a6.81 6.81 0 0 0-.253.242m1.462-.249a4.333 4.333 0 0 1-.264.369m.6.34a5.273 5.273 0 0 1-.248.298m.499.648c-.108.04-.227.098-.357.172m-.727 2.343c-.098.09-.197.178-.295.262"/><path fill="#b37a39" d="M905.036 245.602c.46-.393.772-.926.803-1.373.031-.447-.224-.729-.658-.727.172-.324.204-.635.085-.839-.118-.203-.372-.276-.685-.194.16-.29.183-.57.062-.738-.122-.17-.37-.204-.659-.092.121-.356.034-.644-.222-.738-.257-.095-.638.02-.978.296-.211-.076-.504-.024-.8.144a2.11 2.11 0 0 0-.749.729c-.46.176-.917.567-1.201 1.026-.284.46-.352.919-.178 1.206-.347.35-.556.782-.547 1.127.01.346.237.551.593.539-.344.49-.446 1.004-.26 1.318.185.314.625.372 1.128.15-.007.35.148.608.43.715.281.107.666.053 1.067-.148.14.211.467.224.819.032.351-.192.652-.548.753-.89.316-.003.712-.239.981-.585.27-.346.351-.725.203-.938z"/><path d="M903.84 247.144c-.15.001-.27-.05-.343-.147m-1.23 1.006a.412.412 0 0 1-.06-.154m-1.437-.414c.093-.04.186-.09.278-.148m-1.146-1.32a2.96 2.96 0 0 1 .208-.26m-.254-1.405c.37-.373.832-.59 1.189-.56m.19-1.672c-.095.158-.16.318-.188.467m1.737-1.34a1.95 1.95 0 0 0-.162.148m1.362.294c-.03.089-.073.18-.126.269m.723.56c-.038.07-.084.139-.136.205m.736.83c-.091 0-.189.013-.29.039m.145 2.06a2.613 2.613 0 0 1-.196.152"/><path fill="#b37a39" d="M907.899 248.733c.709-.66 1.305-1.418 1.535-1.953.231-.535.056-.753-.451-.562.342-.454.514-.83.465-1.017-.05-.186-.315-.16-.716.071.313-.408.462-.744.393-.888-.068-.145-.344-.077-.729.179.296-.468.32-.766.062-.765-.259.002-.753.302-1.27.772-.214.003-.578.191-.998.516a7.31 7.31 0 0 0-1.19 1.176c-.614.406-1.318 1.062-1.85 1.722-.53.66-.81 1.225-.732 1.485-.558.56-.99 1.154-1.129 1.553-.139.4.036.541.458.37-.616.724-.958 1.367-.878 1.653.08.286.568.163 1.252-.316-.16.413-.092.646.19.648.283.002.755-.227 1.31-.637.073.185.449.058.943-.319.493-.377 1-.923 1.267-1.367.37-.14.934-.588 1.4-1.11.465-.52.725-.998.644-1.182z"/><path d="M905.831 251.054c-.175.066-.292.058-.336-.023m-1.873 1.709a.28.28 0 0 1-.004-.153m-1.497.142a6.89 6.89 0 0 0 .39-.294m-.764-1.042a9.22 9.22 0 0 1 .356-.394m.315-1.53c.594-.597 1.229-1.052 1.631-1.17m.95-2.037a4.13 4.13 0 0 0-.422.628m2.61-2.32a6.81 6.81 0 0 0-.253.242m1.462-.249a4.333 4.333 0 0 1-.264.369m.6.34a5.267 5.267 0 0 1-.247.298m.498.648c-.107.04-.227.098-.357.172m-.727 2.343c-.098.09-.196.179-.295.262"/><path fill="#b37a39" d="M909.257 248.235c.46-.393.772-.926.803-1.373.031-.446-.224-.729-.657-.727.171-.324.203-.635.085-.839-.119-.203-.373-.276-.686-.194.16-.29.183-.57.062-.738-.121-.17-.37-.204-.659-.092.121-.356.035-.644-.222-.738-.257-.095-.638.02-.978.296-.211-.076-.503-.024-.8.144a2.11 2.11 0 0 0-.749.729c-.46.176-.917.567-1.2 1.027-.285.459-.352.918-.179 1.205-.347.35-.556.782-.546 1.127.01.346.236.551.592.539-.344.49-.446 1.004-.26 1.318.186.314.625.372 1.128.15-.007.35.148.608.43.715.281.107.666.053 1.067-.148.14.211.468.224.819.032.351-.192.652-.547.753-.89.316-.003.712-.239.981-.585.27-.346.351-.724.203-.938z"/><path d="M908.06 249.777c-.149.001-.268-.05-.342-.147m-1.23 1.006a.412.412 0 0 1-.06-.154m-1.437-.414c.093-.04.186-.09.278-.148m-1.146-1.32a2.96 2.96 0 0 1 .208-.26m-.254-1.405c.37-.373.832-.59 1.189-.56m.19-1.672a1.44 1.44 0 0 0-.187.467m1.736-1.34c-.056.046-.11.096-.162.148m1.362.294a1.41 1.41 0 0 1-.125.269m.722.56a1.55 1.55 0 0 1-.135.206m.736.828c-.092 0-.19.014-.291.04m.145 2.06a2.61 2.61 0 0 1-.196.152"/><path fill="#bf9000" d="M925.405 213.282l-4.69-4.69h-1.125l-2.81 2.811 5.252 5.252z"/><path fill="#b37a39" d="M916.413 225.577c1.177-1.092 2.16-2.353 2.533-3.25.373-.896.07-1.27-.779-.963.563-.755.843-1.386.753-1.702-.089-.316-.536-.28-1.205.098.516-.68.756-1.242.637-1.488-.12-.245-.583-.14-1.226.28.486-.78.518-1.283.081-1.288-.436-.006-1.262.487-2.12 1.264-.362-.001-.97.305-1.668.84a11.692 11.692 0 0 0-1.975 1.95c-1.024.667-2.192 1.752-3.069 2.85-.877 1.098-1.33 2.044-1.191 2.485-.925.929-1.636 1.919-1.858 2.588-.223.67.077.914.783.64-1.017 1.202-1.575 2.277-1.431 2.762.144.485.963.292 2.103-.496-.258.692-.135 1.089.341 1.1.477.013 1.267-.36 2.193-1.036.127.316.758.112 1.58-.509.822-.62 1.66-1.528 2.098-2.27.62-.226 1.56-.964 2.329-1.83.77-.866 1.194-1.664 1.052-1.977z"/><path d="M912.993 229.432c-.293.106-.49.09-.568-.05m-3.11 2.83a.474.474 0 0 1-.01-.26m-2.524.195c.21-.145.428-.307.648-.485m-1.32-1.782c.186-.219.384-.438.59-.653m.485-2.574c.984-.989 2.042-1.738 2.718-1.926m1.542-3.409a6.64 6.64 0 0 0-.694 1.047m4.337-3.837a9.341 9.341 0 0 0-.42.402m2.46-.377a6.992 6.992 0 0 1-.435.615m1.023.592c-.124.163-.262.33-.409.496m.861 1.108c-.18.065-.38.16-.597.28m-1.157 3.933c-.162.15-.325.296-.489.434"/><path fill="#bf9000" d="M920.42 209.614l-2.04-2.039h-.815l-2.252 2.252 2.447 2.447z"/><path fill="#bf9000" d="M918.749 209.401l-2.137-2.136h-.621l-1.554 1.554 2.447 2.447zm9.526 2.982l-.94-1.625-.514-.137-2.94 1.702 1.129 1.95z"/><path fill="#7f6000" d="M927.337 211.932l-.312-.531-.213-.057-2.143 1.211.468.797 2.143-1.211a.151.151 0 0 0 .057-.21z"/><path fill="#b37a39" d="M923.847 217.54c.853-.785 1.554-1.707 1.805-2.374.25-.666.007-.96-.626-.758.4-.553.589-1.022.51-1.265-.079-.243-.417-.231-.911.031.367-.497.529-.915.43-1.105-.1-.19-.448-.127-.92.168.34-.575.346-.955.015-.975-.332-.02-.94.324-1.564.883-.274-.014-.724.196-1.235.577a7.73 7.73 0 0 0-1.427 1.408c-.753.47-1.6 1.25-2.226 2.052-.626.801-.936 1.503-.814 1.842-.668.671-1.172 1.397-1.317 1.897-.145.5.092.696.618.513-.729.875-1.113 1.671-.986 2.044.126.373.74.256 1.578-.3-.172.515-.064.82.298.847.362.026.948-.228 1.626-.707.108.244.58.112 1.18-.33.602-.441 1.205-1.099 1.51-1.646.463-.149 1.149-.675 1.701-1.304.552-.63.846-1.22.727-1.462z"/><path d="M921.391 220.342c-.218.07-.369.05-.432-.058m-2.258 2.034a.367.367 0 0 1-.017-.197m-1.907.057c.154-.103.313-.218.473-.345m-1.065-1.399a9.73 9.73 0 0 1 .423-.475m.276-1.935c.711-.715 1.486-1.245 1.992-1.363m1.048-2.53a4.42 4.42 0 0 0-.49.769m3.152-2.755c-.103.092-.205.19-.304.29m1.853-.198a4.63 4.63 0 0 1-.307.451m.797.486a5.58 5.58 0 0 1-.292.362m.693.872a2.787 2.787 0 0 0-.443.191m-.736 2.942a9.444 9.444 0 0 1-.355.311"/><path fill="#7f6000" d="M920.753 210.114c-.333.394-.363.916-.067 1.167.296.25.806.134 1.14-.26-.317.118-.627.082-.838-.097-.211-.178-.298-.479-.235-.81zm-3.893-1.835c.143-.144.026-.495-.263-.783-.288-.289-.639-.406-.783-.262-.144.144-.026.494.262.783.289.288.64.405.783.262z"/><path fill="#fff2cc" d="M902.295 250.704c1.712-1.283 2.49-3.469 2.005-5.63a6.141 6.141 0 0 0-4.286-4.528c.384-1.357.095-2.847-.78-4.021-.874-1.174-2.231-1.893-3.662-1.94.376-1.204.093-2.547-.748-3.554-.84-1.006-2.12-1.534-3.384-1.395.089-1.585-.75-3.127-2.152-3.96-1.402-.833-3.116-.806-4.4.068-1.155-.68-2.522-.839-3.75-.437a4.227 4.227 0 0 0-2.651 2.529c-2.02.214-3.718 1.49-4.462 3.353-.745 1.862-.423 4.031.845 5.697-1.213 1.234-1.63 3.063-1.09 4.782a5.268 5.268 0 0 0 3.696 3.504c-1 1.93-.766 4.32.598 6.134 1.365 1.815 3.616 2.73 5.782 2.35a7.005 7.005 0 0 0 3.144 4.146c1.543.93 3.366 1.216 5.058.794.994 1.244 2.627 1.774 4.087 1.33 1.46-.446 2.438-1.771 2.448-3.32 1.556.44 3.173-.159 4.007-1.484.834-1.324.697-3.074-.34-4.338z"/><path d="M898.592 256.605a3.927 3.927 0 0 1-1.901-1.216m-4.633 3.207a3.969 3.969 0 0 1-.519-.845m-7.682-4.094c.399-.07.787-.183 1.158-.337m-7.539-8.148c.183-.352.403-.682.657-.985m-3.263-7.3c1.291-1.314 3.263-1.728 5.067-1.065m-1.45-7.986a4.439 4.439 0 0 0-.259 2.04m6.66-4.132a3.737 3.737 0 0 0-.59.496m7.142 3.396a3.98 3.98 0 0 1-.236 1.149m4.369 3.8c-.09.289-.217.564-.376.818m4.817 5.143a5.858 5.858 0 0 0-1.38-.22m3.661 10.378a5.338 5.338 0 0 1-.749.47"/><path fill="#7f6000" d="M882.873 261.362l-1.595-1.595-5.293 5.293 1.595 1.595zm3.323 2.527l-1.595-1.595-5.293 5.293 1.595 1.594z"/><path fill="#fff2cc" d="M886.203 258.135c.71-.66 1.305-1.417 1.536-1.953.23-.535.055-.753-.452-.562.342-.454.515-.83.465-1.017-.05-.186-.315-.16-.716.071.313-.408.462-.744.394-.888-.068-.144-.344-.077-.73.18.297-.47.321-.767.062-.766-.258.002-.753.303-1.27.772-.214.003-.577.191-.997.516a7.27 7.27 0 0 0-1.19 1.176c-.615.407-1.319 1.062-1.85 1.722-.531.66-.81 1.225-.732 1.485-.558.56-.99 1.154-1.129 1.554-.14.399.036.54.458.37-.616.723-.958 1.367-.878 1.652.08.286.567.163 1.252-.316-.16.413-.092.646.19.649.282.002.755-.228 1.31-.638.072.186.449.058.942-.318.494-.377 1-.924 1.268-1.368.37-.14.934-.588 1.4-1.11.464-.52.724-.998.644-1.182z"/><path d="M884.136 260.456c-.175.066-.292.058-.336-.023m-1.874 1.71a.28.28 0 0 1-.003-.154m-1.497.142c.126-.088.256-.187.389-.294m-.763-1.042a9.18 9.18 0 0 1 .356-.394m.315-1.53c.594-.596 1.228-1.052 1.63-1.17m.951-2.037c-.18.226-.324.441-.422.628m2.61-2.32a6.81 6.81 0 0 0-.253.243m1.462-.25a4.345 4.345 0 0 1-.264.37m.6.34a5.273 5.273 0 0 1-.248.297m.499.648c-.108.04-.228.098-.357.173m-.728 2.342a8.816 8.816 0 0 1-.294.263"/><path fill="#fff2cc" d="M887.561 257.638c.461-.393.773-.927.804-1.373.03-.447-.224-.73-.658-.727.172-.325.204-.636.085-.84-.118-.203-.372-.275-.685-.194.16-.29.183-.57.062-.738-.122-.169-.37-.204-.66-.092.122-.356.035-.643-.222-.738-.256-.094-.637.021-.977.297-.212-.077-.504-.024-.801.143a2.11 2.11 0 0 0-.748.729c-.46.176-.917.567-1.201 1.027-.284.46-.352.918-.178 1.206-.347.35-.556.781-.547 1.126.01.346.236.552.593.539-.345.49-.446 1.004-.26 1.318.185.314.624.372 1.128.15-.007.35.148.608.43.715.281.107.666.054 1.067-.148.14.211.467.224.818.032.352-.191.653-.547.754-.89.316-.003.712-.238.981-.585.27-.346.351-.724.203-.937z"/><path d="M886.365 259.18c-.149 0-.269-.05-.343-.148m-1.23 1.006a.411.411 0 0 1-.06-.154m-1.436-.413c.092-.041.185-.091.277-.149m-1.145-1.32c.063-.089.133-.176.208-.259m-.254-1.405c.37-.374.832-.591 1.188-.56m.19-1.673a1.483 1.483 0 0 0-.187.468m1.737-1.34c-.056.045-.11.095-.162.147m1.362.294c-.03.089-.073.18-.126.27m.723.56c-.039.07-.084.138-.136.205m.736.829c-.092 0-.19.013-.29.04m.144 2.06a2.629 2.629 0 0 1-.195.152"/><path fill="#fff2cc" d="M891.02 260.03c.71-.66 1.306-1.418 1.537-1.953.23-.536.055-.754-.452-.563.342-.454.514-.83.465-1.017-.05-.186-.315-.16-.716.071.313-.408.462-.744.394-.888-.069-.144-.344-.076-.73.18.297-.469.32-.767.062-.765-.259.001-.753.302-1.27.771-.214.003-.578.191-.997.516-.42.325-.854.754-1.191 1.177-.614.406-1.318 1.061-1.85 1.721-.53.66-.81 1.225-.732 1.485-.557.56-.99 1.155-1.128 1.554-.14.399.036.54.457.37-.616.723-.957 1.367-.877 1.652.08.286.567.163 1.251-.316-.16.413-.092.647.19.649.283.002.755-.228 1.311-.638.072.186.448.059.942-.318.494-.377 1-.923 1.267-1.368.37-.14.935-.588 1.4-1.11.465-.52.725-.998.644-1.182z"/><path d="M888.953 262.35c-.174.066-.292.058-.336-.023m-1.873 1.71a.279.279 0 0 1-.003-.154m-1.498.142c.127-.088.257-.187.39-.294m-.764-1.042a9.18 9.18 0 0 1 .356-.393m.315-1.53c.594-.597 1.229-1.053 1.631-1.171m.95-2.036c-.179.225-.323.44-.422.627m2.611-2.32c-.086.078-.17.16-.253.243m1.461-.25a4.348 4.348 0 0 1-.263.37m.6.34a5.262 5.262 0 0 1-.248.298m.498.647c-.107.04-.227.099-.357.173m-.727 2.342a8.84 8.84 0 0 1-.295.263"/><path fill="#7f6000" d="M870.364 248.326l-1.595-1.595-5.292 5.293 1.595 1.594z"/><path fill="#fff2cc" d="M892.379 259.532c.46-.393.772-.926.803-1.373.031-.447-.224-.73-.657-.727.172-.325.203-.636.085-.84-.118-.203-.373-.275-.686-.194.16-.29.184-.57.062-.738-.121-.169-.37-.203-.659-.092.121-.356.035-.643-.222-.738-.257-.094-.637.021-.977.297-.212-.076-.504-.024-.801.143a2.11 2.11 0 0 0-.749.729c-.46.176-.917.567-1.2 1.027-.285.46-.352.918-.179 1.206-.347.35-.556.781-.546 1.127.01.345.236.55.593.538-.345.49-.446 1.004-.26 1.318.185.314.624.372 1.127.15-.007.35.148.608.43.715.282.107.666.054 1.067-.148.14.211.468.224.819.032.351-.191.652-.547.754-.89.316-.003.711-.238.98-.585.27-.346.351-.724.203-.937z"/><path d="M891.183 261.074c-.15 0-.27-.05-.343-.148m-1.23 1.006a.412.412 0 0 1-.06-.154m-1.437-.413c.093-.041.186-.091.278-.149m-1.145-1.32a2.51 2.51 0 0 1 .208-.259m-.254-1.405c.37-.373.832-.591 1.188-.56m.19-1.673a1.437 1.437 0 0 0-.187.468m1.737-1.34a2.06 2.06 0 0 0-.163.147m1.362.294c-.03.089-.072.18-.125.27m.722.56c-.038.07-.084.138-.135.205m.736.829c-.092 0-.19.014-.291.04m.145 2.06a2.62 2.62 0 0 1-.196.152"/><path fill="#7f6000" d="M874.218 250.853l-1.595-1.594-5.292 5.292 1.595 1.595z"/><path fill="#fff2cc" d="M874.356 244.952c.709-.659 1.305-1.417 1.536-1.952.23-.535.055-.754-.452-.563.342-.453.514-.83.465-1.017-.05-.186-.315-.16-.716.072.313-.409.462-.745.393-.889-.068-.144-.343-.076-.729.18.297-.469.32-.767.062-.765-.259.001-.753.302-1.27.771-.214.003-.578.192-.998.516-.42.325-.853.754-1.19 1.177-.614.406-1.318 1.061-1.85 1.721-.53.66-.81 1.226-.732 1.485-.557.56-.99 1.155-1.128 1.554-.14.399.035.54.457.37-.616.724-.957 1.367-.877 1.653.08.285.567.162 1.251-.316-.16.412-.092.646.19.648.283.002.755-.228 1.311-.637.072.185.448.058.942-.32.493-.376 1-.922 1.267-1.367.37-.14.935-.588 1.4-1.109.465-.521.725-.998.644-1.183z"/><path d="M872.288 247.273c-.174.066-.292.058-.336-.023m-1.873 1.71a.28.28 0 0 1-.004-.154m-1.497.142a6.89 6.89 0 0 0 .39-.294m-.764-1.042a9.18 9.18 0 0 1 .356-.393m.315-1.53c.594-.597 1.229-1.052 1.631-1.171m.95-2.036c-.179.225-.323.44-.422.628m2.611-2.32a6.81 6.81 0 0 0-.254.242m1.462-.25a4.345 4.345 0 0 1-.263.37m.599.34a5.267 5.267 0 0 1-.247.298m.498.647c-.107.04-.227.099-.357.173m-.727 2.342a9.03 9.03 0 0 1-.295.263"/><path fill="#fff2cc" d="M875.714 244.455c.46-.393.772-.926.803-1.373.031-.447-.224-.73-.657-.727.172-.325.203-.636.085-.84-.118-.203-.373-.275-.686-.194.16-.29.184-.569.062-.738-.121-.168-.37-.203-.659-.092.121-.356.035-.643-.222-.738-.257-.094-.637.022-.977.297-.212-.076-.504-.024-.801.143a2.11 2.11 0 0 0-.749.73c-.46.176-.917.567-1.2 1.026-.285.46-.352.919-.179 1.206-.347.35-.556.781-.546 1.127.01.345.236.551.593.538-.345.491-.446 1.004-.26 1.318.185.314.624.372 1.127.15-.007.35.148.609.43.715.282.107.666.054 1.067-.148.14.212.468.224.819.033.351-.192.652-.548.754-.891.316-.002.711-.238.98-.584.27-.347.351-.725.203-.938z"/><path d="M874.518 245.997c-.15.001-.27-.05-.343-.147m-1.23 1.005a.411.411 0 0 1-.06-.154m-1.437-.413c.093-.041.186-.09.278-.149m-1.145-1.319a2.52 2.52 0 0 1 .208-.26m-.254-1.405c.37-.373.832-.59 1.188-.56m.19-1.673a1.437 1.437 0 0 0-.187.468m1.737-1.34a2.06 2.06 0 0 0-.163.147m1.362.294c-.03.09-.072.18-.125.27m.722.56a1.54 1.54 0 0 1-.135.205m.736.829c-.092 0-.19.014-.291.04m.145 2.06a2.62 2.62 0 0 1-.196.152"/><path fill="#fff2cc" d="M878.577 247.585c.709-.659 1.305-1.417 1.536-1.952.23-.535.055-.754-.452-.563.342-.453.514-.83.465-1.017-.05-.186-.315-.16-.716.072.313-.409.462-.744.394-.889-.069-.144-.344-.076-.73.18.297-.469.32-.767.062-.765-.258.001-.753.302-1.27.771-.214.004-.578.192-.997.516-.42.325-.854.754-1.19 1.177-.615.406-1.319 1.061-1.85 1.721-.531.66-.81 1.226-.732 1.485-.558.56-.99 1.155-1.13 1.554-.138.399.037.54.458.37-.615.724-.957 1.367-.877 1.653.08.285.567.162 1.252-.316-.161.412-.093.646.19.648.282.002.754-.228 1.31-.637.072.185.448.058.942-.319.494-.377 1-.923 1.267-1.368.37-.14.935-.587 1.4-1.109.465-.521.725-.998.644-1.183z"/><path d="M876.51 249.906c-.175.066-.292.058-.336-.023m-1.874 1.71a.28.28 0 0 1-.003-.154m-1.497.143a6.89 6.89 0 0 0 .388-.295m-.762-1.042a9.18 9.18 0 0 1 .355-.393m.316-1.53c.593-.597 1.228-1.052 1.63-1.171m.951-2.036c-.18.225-.324.44-.423.628m2.611-2.32c-.086.077-.17.159-.253.242m1.462-.25a4.348 4.348 0 0 1-.264.37m.6.34a5.267 5.267 0 0 1-.248.298m.498.647c-.107.04-.227.099-.356.173m-.728 2.342a8.7 8.7 0 0 1-.294.263"/><path fill="#fff2cc" d="M879.935 247.088c.46-.393.773-.926.804-1.373.03-.447-.225-.73-.658-.727.172-.325.203-.636.085-.84-.118-.203-.372-.275-.686-.194.16-.29.184-.569.062-.738-.121-.168-.37-.203-.658-.092.12-.356.034-.643-.223-.738-.257-.094-.637.022-.977.297-.212-.076-.504-.024-.801.143a2.11 2.11 0 0 0-.748.73c-.46.176-.918.567-1.202 1.026-.283.46-.351.919-.177 1.206-.348.35-.557.781-.547 1.127.01.345.236.551.593.538-.345.491-.446 1.004-.26 1.318.185.314.624.372 1.127.15-.007.35.148.609.43.715.282.107.666.054 1.067-.148.14.212.468.225.82.033.35-.192.652-.548.753-.891.316-.002.712-.238.98-.584.27-.347.352-.725.203-.938z"/><path d="M878.739 248.63c-.15.001-.269-.05-.343-.147m-1.23 1.005a.411.411 0 0 1-.06-.153m-1.437-.414c.093-.041.186-.09.278-.149m-1.145-1.319c.063-.09.132-.176.208-.26m-.254-1.405c.37-.373.832-.59 1.188-.56m.19-1.673a1.46 1.46 0 0 0-.187.468m1.737-1.34c-.057.046-.11.095-.162.147m1.362.294c-.03.09-.073.18-.126.27m.722.56c-.038.07-.083.139-.135.205m.736.83c-.092 0-.19.013-.29.039m.144 2.06a2.62 2.62 0 0 1-.195.152"/><path fill="#ffe599" d="M896.083 212.134l-4.69-4.69h-1.125l-2.81 2.812 5.252 5.251z"/><path fill="#fff2cc" d="M887.092 224.43c1.176-1.092 2.16-2.354 2.533-3.25.373-.897.07-1.27-.78-.963.564-.756.843-1.387.754-1.703-.09-.316-.536-.28-1.206.099.516-.68.757-1.242.637-1.488s-.583-.14-1.225.28c.485-.781.517-1.283.08-1.289-.436-.005-1.262.487-2.12 1.264-.361 0-.97.306-1.668.84a11.692 11.692 0 0 0-1.974 1.95c-1.024.668-2.193 1.753-3.07 2.85-.876 1.099-1.33 2.045-1.19 2.486-.926.928-1.636 1.918-1.86 2.588-.222.67.078.914.785.64-1.018 1.201-1.575 2.277-1.432 2.762.144.485.963.291 2.104-.496-.26.692-.136 1.088.34 1.1.477.012 1.268-.361 2.193-1.036.127.315.758.112 1.58-.51.822-.62 1.66-1.527 2.098-2.27.62-.225 1.56-.963 2.33-1.83.768-.865 1.193-1.663 1.051-1.976z"/><path d="M883.671 228.284c-.292.107-.49.09-.567-.048m-3.11 2.828a.474.474 0 0 1-.011-.259m-2.523.195c.21-.145.427-.308.647-.485m-1.32-1.782c.186-.219.384-.438.59-.654m.485-2.573c.985-.99 2.042-1.739 2.718-1.927m1.543-3.408a6.641 6.641 0 0 0-.695 1.047m4.337-3.838a12.2 12.2 0 0 0-.42.402m2.46-.376a6.977 6.977 0 0 1-.434.614m1.022.593c-.124.163-.261.33-.409.496m.861 1.108c-.18.065-.38.159-.597.28m-1.156 3.933a14.4 14.4 0 0 1-.49.434"/><path fill="#ffe599" d="M891.098 208.467l-2.04-2.04h-.815l-2.252 2.253 2.447 2.447z"/><path fill="#ffe599" d="M889.427 208.254l-2.137-2.136h-.621l-1.554 1.554 2.447 2.447zm9.526 2.982l-.94-1.626-.513-.137-2.94 1.702 1.128 1.951z"/><path fill="#bf9000" d="M898.015 210.784l-.312-.53-.212-.058-2.144 1.212.468.797 2.144-1.212a.151.151 0 0 0 .056-.209z"/><path fill="#fff2cc" d="M894.525 216.393c.854-.786 1.554-1.707 1.805-2.374.25-.667.008-.961-.626-.759.4-.553.59-1.021.51-1.264-.079-.243-.417-.232-.911.03.367-.496.53-.914.43-1.105-.1-.19-.448-.127-.92.169.34-.576.346-.955.015-.975-.331-.02-.94.324-1.563.882-.274-.014-.725.197-1.236.578-.51.38-1.03.894-1.427 1.408-.753.47-1.6 1.25-2.226 2.052-.625.8-.935 1.502-.814 1.842-.668.671-1.171 1.396-1.316 1.896-.145.5.091.697.617.514-.728.875-1.113 1.67-.986 2.044.126.373.74.256 1.578-.3-.171.515-.064.82.298.847.362.026.948-.229 1.627-.707.107.243.579.112 1.18-.33.601-.441 1.204-1.1 1.51-1.647.462-.148 1.148-.675 1.7-1.304.553-.63.846-1.219.727-1.462z"/><path d="M892.07 219.194c-.219.07-.37.05-.433-.057m-2.257 2.034a.367.367 0 0 1-.018-.197m-1.907.057c.154-.103.313-.218.474-.345m-1.066-1.4c.133-.159.275-.318.424-.474m.275-1.935c.711-.715 1.486-1.245 1.993-1.364m1.047-2.53a4.42 4.42 0 0 0-.49.77m3.153-2.756a7.12 7.12 0 0 0-.305.29m1.853-.197a4.632 4.632 0 0 1-.307.45m.797.487c-.088.12-.186.24-.292.361m.693.872a2.791 2.791 0 0 0-.443.192m-.736 2.941a9.458 9.458 0 0 1-.355.312"/><path fill="#bf9000" d="M891.432 208.966c-.333.394-.363.917-.067 1.167.296.251.806.135 1.139-.259-.317.117-.627.081-.838-.097-.21-.179-.298-.479-.234-.81zm-3.894-1.835c.144-.144.026-.494-.262-.783-.289-.288-.64-.405-.783-.262-.144.144-.027.495.262.783.288.289.639.406.783.262z"/><path fill="#783f04" d="M376.705 275.197l7.782 1.464-3.89 20.654-7.782-1.465z"/><path fill="#274e13" d="M364.474 281.957l22.882-41.925 6.066 47.37z"/><path fill="#783f04" d="M330.159 267.13l7.782 1.465-3.89 20.653-7.782-1.464z"/><path fill="#274e13" d="M317.928 273.89l22.883-41.924 6.065 47.37z"/><path fill="#783f04" d="M357.047 283.515l7.782 1.464-3.89 20.653-7.782-1.464z"/><path fill="#274e13" d="M345.64 285.899l22.883-41.925 6.065 47.37z"/><path fill="#783f04" d="M147.965 185.987l6.343.242-.51 13.3-6.343-.241z"/><path fill="#274e13" d="M139.123 191.293l12.9-28.302 10.695 29.202z"/><path fill="#783f04" d="M110.11 184.973l6.344.242-.51 13.3-6.343-.241z"/><path fill="#274e13" d="M101.268 190.28l12.9-28.303 10.696 29.202z"/><path fill="#783f04" d="M133.436 192.917l6.344.242-.51 13.3-6.343-.241z"/><path fill="#274e13" d="M124.702 195.406l12.9-28.303 10.696 29.203z"/><path fill="#783f04" d="M649.543 284.91l7.787-1.437 3.81 20.668-7.786 1.437z"/><path fill="#274e13" d="M640.569 295.622l6.245-47.354 22.72 42.006z"/><path fill="#783f04" d="M603.218 294.152l7.787-1.437 3.81 20.668-7.786 1.438z"/><path fill="#274e13" d="M594.244 304.864l6.245-47.354 22.72 42.007z"/><path fill="#783f04" d="M634.202 299.75l7.786-1.437 3.81 20.668-7.786 1.438z"/><path fill="#274e13" d="M624.42 306.084l6.245-47.354 22.72 42.006zm-160.36 42.518l38.111-115.513 35.526 115.481z"/></g></svg>