<svg viewBox="0.0 0.0 330.15223097112863 330.15223097112863" fill="none" stroke-linecap="square" stroke-miterlimit="10" xmlns="http://www.w3.org/2000/svg"><clipPath id="a"><path d="M0 0h330.152v330.152H0V0z"/></clipPath><g clip-path="url(#a)"><path d="M0 0h330.152v330.152H0z"/><path fill="#b6d7a8" d="M0 157.764C0 70.634 70.633 0 157.764 0a157.764 157.764 0 0 1 157.764 157.764c0 87.13-70.634 157.764-157.764 157.764C70.634 315.528 0 244.894 0 157.764z"/><path fill="#fce5cd" d="M55.915 157.764c0-57.864 46.908-104.772 104.772-104.772a104.772 104.772 0 0 1 104.772 104.772c0 57.864-46.908 104.772-104.772 104.772-57.864 0-104.772-46.908-104.772-104.772z"/><path fill="#fce5cd" d="M30.826 150.477c0-15.53 12.59-28.12 28.12-28.12a28.12 28.12 0 0 1 28.119 28.12c0 15.53-12.59 28.12-28.12 28.12-15.53 0-28.12-12.59-28.12-28.12zm200.876 0c0-15.53 12.59-28.12 28.12-28.12a28.12 28.12 0 0 1 28.12 28.12c0 15.53-12.59 28.12-28.12 28.12-15.53 0-28.12-12.59-28.12-28.12z"/><path fill="#f9cb9c" d="M144.665 166.93c-7.744 0-14.021-4.628-14.021-10.339 0-5.71 6.277-10.34 14.021-10.34v5.17c-4.888 0-8.851 2.315-8.851 5.17s3.963 5.17 8.851 5.17z"/><path fill="#c00" d="M168.645 183.766c0 2.856-10.736 5.17-23.98 5.17-13.243 0-23.98-2.314-23.98-5.17h2.585c0 1.428 9.58 2.585 21.395 2.585 11.817 0 21.395-1.157 21.395-2.585z"/><path fill="#600" d="M105.195 127.527c0-2.855 4.415-5.17 9.863-5.17 5.447 0 9.862 2.315 9.862 5.17s-4.415 5.17-9.862 5.17c-5.448 0-9.863-2.315-9.863-5.17zm56.442 0c0-2.855 4.416-5.17 9.863-5.17 5.447 0 9.863 2.315 9.863 5.17s-4.416 5.17-9.863 5.17c-5.447 0-9.863-2.315-9.863-5.17z"/><path d="M246.591 118.91h42.047v15.491H246.59z"/><path fill="#f6b26b" d="M256.529 141.053l1.875-.172q.14 1.14.625 1.86.484.718 1.516 1.171 1.03.438 2.312.438 1.125 0 2-.328.875-.344 1.297-.938.437-.594.437-1.281 0-.703-.421-1.234-.407-.532-1.344-.891-.61-.234-2.688-.734-2.062-.5-2.89-.938-1.078-.562-1.61-1.39-.53-.844-.53-1.876 0-1.14.64-2.125.656-1 1.89-1.5 1.25-.515 2.766-.515 1.672 0 2.937.531 1.282.531 1.97 1.578.687 1.047.734 2.375l-1.907.14q-.156-1.421-1.047-2.14-.875-.734-2.609-.734-1.797 0-2.625.656-.828.656-.828 1.594 0 .812.578 1.328.578.531 3 1.078t3.328.953q1.313.61 1.938 1.547.625.922.625 2.125 0 1.203-.688 2.266-.687 1.062-1.969 1.656-1.28.578-2.89.578-2.047 0-3.438-.594-1.375-.593-2.156-1.78-.781-1.204-.828-2.704z"/><path d="M26.89 121.135h42.046v15.491H26.89z"/><path fill="#f6b26b" d="M36.828 143.278l1.875-.172q.14 1.14.625 1.86.484.718 1.515 1.171 1.031.438 2.313.438 1.125 0 2-.328.875-.344 1.297-.938.437-.594.437-1.281 0-.703-.422-1.235-.406-.53-1.344-.89-.609-.235-2.687-.735-2.063-.5-2.89-.937-1.079-.563-1.61-1.39-.531-.844-.531-1.876 0-1.14.64-2.125.657-1 1.89-1.5 1.25-.515 2.767-.515 1.671 0 2.937.531 1.281.531 1.969 1.578.687 1.047.734 2.375l-1.906.14q-.156-1.421-1.047-2.14-.875-.734-2.61-.734-1.796 0-2.624.656-.828.656-.828 1.594 0 .812.578 1.328.578.531 3 1.078t3.328.953q1.312.61 1.937 1.547.625.922.625 2.125 0 1.203-.687 2.266-.688 1.062-1.969 1.656-1.281.578-2.89.578-2.047 0-3.438-.594-1.375-.594-2.156-1.781-.782-1.203-.828-2.703z"/><path fill="#5b0f00" d="M134.987 208.65a1.164 1.164 0 1 1 2.327 0 1.164 1.164 0 0 1-2.327 0z"/><path fill="#000" d="M185.246 101.01c-9.174 9.877-30.928 14.815-51.213 11.627-20.285-3.189-33.03-13.55-30.005-24.392 3.026-10.843 20.916-18.922 42.119-19.02z"/><path stroke="#000" stroke-linejoin="round" stroke-linecap="butt" d="M185.246 101.01c-9.174 9.877-30.928 14.815-51.213 11.627-20.285-3.189-33.03-13.55-30.005-24.392 3.026-10.843 20.916-18.922 42.119-19.02z"/><path fill="#000" d="M103.589 88.416v-16.98c0-9.376 25.564-16.978 57.098-16.978s57.098 7.602 57.098 16.979v16.979z"/><path fill="#000" d="M75.359 91.134c10.494-16.142 24.032-25.955 30.237-21.92l11.237 7.306-19.001 29.227c-10.494 16.14-24.032 25.955-30.237 21.92-6.206-4.036-2.73-20.392 7.764-36.533zm144.423 12.336c10.494 16.142 24.032 25.955 30.237 21.92l11.237-7.306-19.001-29.227c-10.494-16.14-24.032-25.955-30.237-21.92-6.206 4.036-2.73 20.392 7.764 36.533z"/><path fill="#ead1dc" fill-opacity=".354" d="M87.065 164.48c0-8.155 5.885-14.766 13.144-14.766 3.486 0 6.83 1.555 9.295 4.324 2.465 2.77 3.85 6.525 3.85 10.441 0 8.155-5.885 14.766-13.145 14.766s-13.144-6.61-13.144-14.766zm93.09 0c0-8.155 5.885-14.766 13.144-14.766 3.486 0 6.83 1.555 9.295 4.324 2.465 2.77 3.85 6.525 3.85 10.441 0 8.155-5.885 14.766-13.145 14.766-7.259 0-13.144-6.61-13.144-14.766z"/></g></svg>