<svg viewBox="0.0 0.0 330.15223097112863 330.15223097112863" fill="none" stroke-linecap="square" stroke-miterlimit="10" xmlns="http://www.w3.org/2000/svg"><clipPath id="a"><path d="M0 0h330.152v330.152H0V0z"/></clipPath><g clip-path="url(#a)"><path d="M0 0h330.152v330.152H0z"/><path fill="#ea9999" d="M8 157.764C8 70.634 78.633 0 165.764 0a157.764 157.764 0 0 1 157.764 157.764c0 87.13-70.634 157.764-157.764 157.764C78.634 315.528 8 244.894 8 157.764z"/><path fill="#fce5cd" d="M55.915 157.764c0-57.864 46.908-104.772 104.772-104.772a104.772 104.772 0 0 1 104.772 104.772c0 57.864-46.908 104.772-104.772 104.772-57.864 0-104.772-46.908-104.772-104.772z"/><path fill="#fce5cd" d="M30.826 150.477c0-15.53 12.59-28.12 28.12-28.12a28.12 28.12 0 0 1 28.119 28.12c0 15.53-12.59 28.12-28.12 28.12-15.53 0-28.12-12.59-28.12-28.12zm200.876 0c0-15.53 12.59-28.12 28.12-28.12a28.12 28.12 0 0 1 28.12 28.12c0 15.53-12.59 28.12-28.12 28.12-15.53 0-28.12-12.59-28.12-28.12z"/><path fill="#f9cb9c" d="M144.665 166.93c-7.744 0-14.021-4.628-14.021-10.339 0-5.71 6.277-10.34 14.021-10.34v5.17c-4.888 0-8.851 2.315-8.851 5.17s3.963 5.17 8.851 5.17z"/><path fill="#c00" d="M168.645 183.766c0 2.856-10.736 5.17-23.98 5.17-13.243 0-23.98-2.314-23.98-5.17h2.585c0 1.428 9.58 2.585 21.395 2.585 11.817 0 21.395-1.157 21.395-2.585z"/><path fill="#600" d="M105.195 127.527c0-2.855 4.415-5.17 9.863-5.17 5.447 0 9.862 2.315 9.862 5.17s-4.415 5.17-9.862 5.17c-5.448 0-9.863-2.315-9.863-5.17zm56.442 0c0-2.855 4.416-5.17 9.863-5.17 5.447 0 9.863 2.315 9.863 5.17s-4.416 5.17-9.863 5.17c-5.447 0-9.863-2.315-9.863-5.17z"/><path d="M246.591 118.91h42.047v15.491H246.59z"/><path fill="#f6b26b" d="M256.529 141.053l1.875-.172q.14 1.14.625 1.86.484.718 1.516 1.171 1.03.438 2.312.438 1.125 0 2-.328.875-.344 1.297-.938.437-.594.437-1.281 0-.703-.421-1.234-.407-.532-1.344-.891-.61-.234-2.688-.734-2.062-.5-2.89-.938-1.078-.562-1.61-1.39-.53-.844-.53-1.876 0-1.14.64-2.125.656-1 1.89-1.5 1.25-.515 2.766-.515 1.672 0 2.937.531 1.282.531 1.97 1.578.687 1.047.734 2.375l-1.907.14q-.156-1.421-1.047-2.14-.875-.734-2.609-.734-1.797 0-2.625.656-.828.656-.828 1.594 0 .812.578 1.328.578.531 3 1.078t3.328.953q1.313.61 1.938 1.547.625.922.625 2.125 0 1.203-.688 2.266-.687 1.062-1.969 1.656-1.28.578-2.89.578-2.047 0-3.438-.594-1.375-.593-2.156-1.78-.781-1.204-.828-2.704z"/><path d="M26.89 121.135h42.046v15.491H26.89z"/><path fill="#f6b26b" d="M36.828 143.278l1.875-.172q.14 1.14.625 1.86.484.718 1.515 1.171 1.031.438 2.313.438 1.125 0 2-.328.875-.344 1.297-.938.437-.594.437-1.281 0-.703-.422-1.235-.406-.53-1.344-.89-.609-.235-2.687-.735-2.063-.5-2.89-.937-1.079-.563-1.61-1.39-.531-.844-.531-1.876 0-1.14.64-2.125.657-1 1.89-1.5 1.25-.515 2.767-.515 1.671 0 2.937.531 1.281.531 1.969 1.578.687 1.047.734 2.375l-1.906.14q-.156-1.421-1.047-2.14-.875-.734-2.61-.734-1.796 0-2.624.656-.828.656-.828 1.594 0 .812.578 1.328.578.531 3 1.078t3.328.953q1.312.61 1.937 1.547.625.922.625 2.125 0 1.203-.687 2.266-.688 1.062-1.969 1.656-1.281.578-2.89.578-2.047 0-3.438-.594-1.375-.594-2.156-1.781-.782-1.203-.828-2.703z"/><path fill="#5b0f00" d="M134.987 208.65a1.164 1.164 0 1 1 2.327 0 1.164 1.164 0 0 1-2.327 0z"/><path fill="#000" d="M103.588 88.415V70.619c0-9.828 26.172-17.795 58.457-17.795 32.284 0 58.456 7.967 58.456 17.795v17.796z"/><path fill="#ead1dc" fill-opacity=".354" d="M87.065 164.48c0-8.155 5.885-14.766 13.144-14.766 3.486 0 6.83 1.555 9.295 4.324 2.465 2.77 3.85 6.525 3.85 10.441 0 8.155-5.885 14.766-13.145 14.766s-13.144-6.61-13.144-14.766zm93.09 0c0-8.155 5.885-14.766 13.144-14.766 3.486 0 6.83 1.555 9.295 4.324 2.465 2.77 3.85 6.525 3.85 10.441 0 8.155-5.885 14.766-13.145 14.766-7.259 0-13.144-6.61-13.144-14.766z"/><path fill="#000" d="M221.105 66.874l36.75 39.673 17.473 89.965 4.819 25.705-52.415 12.294-16.868 7.264 9.64-76.554V81.402z"/><path fill="#000" d="M207.25 60.219c.1-4.151 23.997 13.415 32.532 20.848 8.535 7.433 13.958 12.26 18.677 23.747 4.72 11.487 5.722 24.807 9.638 45.174 3.916 20.367 18.678 84.363 13.858 77.028-4.82-7.336-30.326-93.244-42.777-121.043-12.45-27.8-32.03-41.603-31.929-45.754zm-97.434 6.054l-25.302 57.113-9.64 102.488-37.955 8.541 22.895-71.528 10.241-56.046z"/><path fill="#000" d="M165.076 71.704c.602 4.709 55.327 33.788 65.67 34.895 10.342 1.108 7.33-22.434-3.615-28.25-10.945-5.815-62.657-11.353-62.055-6.645zm-60.246-4.829c-1.105-1.205-20.083 16.468-26.51 24.1-6.426 7.63-8.033 9.939-12.05 21.687-4.015 11.748-5.921 29.02-12.046 48.8-6.125 19.781-21.691 59.543-24.704 69.885-3.012 10.342 1.707-3.514 6.628-7.832 4.92-4.317 16.066-4.418 22.895-18.073 6.828-13.656 13.755-45.988 18.073-63.861 4.318-17.873 3.213-30.927 7.832-43.378s20.986-30.124 19.882-31.328z"/><path stroke="#000" stroke-linejoin="round" stroke-linecap="butt" d="M104.83 66.875c-1.105-1.205-20.083 16.468-26.51 24.1-6.426 7.63-8.033 9.939-12.05 21.687-4.015 11.748-5.921 29.02-12.046 48.8-6.125 19.781-21.691 59.543-24.704 69.885-3.012 10.342 1.707-3.514 6.628-7.832 4.92-4.317 16.066-4.418 22.895-18.073 6.828-13.656 13.755-45.988 18.073-63.861 4.318-17.873 3.213-30.927 7.832-43.378s20.986-30.124 19.882-31.328z"/><path fill="#000" d="M107.685 74.517l-11.78 5.197 9.134-11.181z"/><path fill="#000" d="M100.612 88.058c3.413 5.426 15.563 15.464 27.713 21.16 12.15 5.698 32.635 9.858 45.187 13.023 12.551 3.165 19.982 4.521 30.123 5.968 10.141 1.447 26.407 7.326 30.725 2.714 4.317-4.612 1.507-22.519-4.82-30.386-6.325-7.868-12.853-12.84-33.136-16.819-20.283-3.978-72.596-7.777-88.561-7.053-15.966.723-10.645 5.968-7.231 11.393z"/></g></svg>