<svg viewBox="0.0 0.0 270.3884514435696 271.5485564304462" fill="none" stroke-linecap="square" stroke-miterlimit="10" xmlns="http://www.w3.org/2000/svg"><clipPath id="a"><path d="M0 0h270.388v271.549H0V0z"/></clipPath><g clip-path="url(#a)"><path d="M0 0h270.388v271.549H0z"/><path fill="#a2c4c9" d="M0 134.551C0 60.241 60.24 0 134.551 0a134.551 134.551 0 0 1 134.551 134.551c0 74.31-60.24 134.551-134.55 134.551C60.24 269.102 0 208.862 0 134.552z" fill-rule="evenodd"/><path fill="#fce5cd" d="M202.222 151.247c0-10.88 7.1-19.701 15.858-19.701 4.206 0 8.24 2.076 11.214 5.77 2.974 3.695 4.644 8.706 4.644 13.93 0 10.881-7.1 19.702-15.858 19.702-8.758 0-15.858-8.82-15.858-19.701z" fill-rule="evenodd"/><path fill="#fce5cd" d="M220.545 150.448c-3.758 18.419-9.896 39.127-24.803 52.969-14.906 13.841-43.97 29.317-64.638 30.08-20.67.763-45.847-11.445-59.376-25.504-13.528-14.06-19.416-38.254-21.796-58.852-2.38-20.6-13.782-52.315 7.513-64.74 21.296-12.424 93.45-11.225 120.258-9.808 26.807 1.417 33.447 5.667 40.587 18.31 7.14 12.642 6.013 39.126 2.255 57.545z" fill-rule="evenodd"/><path fill="#fce5cd" d="M44.7 117.956c0-40.277 38.874-72.927 86.828-72.927s86.829 32.65 86.829 72.927c0 40.276-38.875 72.926-86.829 72.926-47.954 0-86.829-32.65-86.829-72.926z" fill-rule="evenodd"/><path fill="#fce5cd" d="M34.476 151.247c0-10.88 7.1-19.701 15.858-19.701 4.206 0 8.24 2.076 11.213 5.77 2.974 3.695 4.645 8.706 4.645 13.93 0 10.881-7.1 19.702-15.858 19.702-8.758 0-15.858-8.82-15.858-19.701z" fill-rule="evenodd"/><path d="M30.472 127.707h42.047v15.496H30.472z"/><path fill="#f6b26b" d="M40.41 149.855l1.874-.172q.14 1.14.625 1.86.485.718 1.516 1.171 1.031.438 2.312.438 1.125 0 2-.329.875-.343 1.297-.937.438-.594.438-1.281 0-.703-.422-1.235-.406-.53-1.344-.89-.61-.235-2.687-.735-2.063-.5-2.891-.937-1.078-.563-1.61-1.39-.53-.845-.53-1.876 0-1.14.64-2.125.656-1 1.89-1.5 1.25-.515 2.766-.515 1.672 0 2.938.53 1.281.532 1.969 1.579.687 1.047.734 2.375l-1.906.14q-.157-1.421-1.047-2.14-.875-.734-2.61-.734-1.796 0-2.625.656-.828.656-.828 1.594 0 .812.578 1.328.579.531 3 1.078 2.422.547 3.329.953 1.312.61 1.937 1.547.625.922.625 2.125 0 1.203-.687 2.265-.688 1.063-1.97 1.657-1.28.578-2.89.578-2.047 0-3.437-.594-1.375-.594-2.157-1.781-.78-1.203-.828-2.703z"/><path d="M204.505 127.5h42.047v15.496h-42.047z"/><path fill="#f6b26b" d="M214.442 149.647l1.875-.171q.141 1.14.625 1.859.485.719 1.516 1.172 1.031.437 2.313.437 1.125 0 2-.328.875-.344 1.296-.937.438-.594.438-1.282 0-.703-.422-1.234-.406-.531-1.344-.89-.609-.235-2.687-.735-2.063-.5-2.89-.937-1.079-.563-1.61-1.391-.531-.844-.531-1.875 0-1.14.64-2.125.656-1 1.89-1.5 1.25-.516 2.766-.516 1.672 0 2.938.532 1.281.53 1.969 1.578.687 1.047.734 2.375l-1.906.14q-.156-1.422-1.047-2.14-.875-.735-2.61-.735-1.796 0-2.624.657-.829.656-.829 1.593 0 .813.579 1.328.578.532 3 1.079 2.421.546 3.328.953 1.312.609 1.937 1.547.625.921.625 2.125 0 1.203-.687 2.265-.688 1.063-1.969 1.656-1.281.579-2.89.579-2.048 0-3.438-.594-1.375-.594-2.156-1.781-.782-1.204-.829-2.704z"/><path fill="#600" d="M93.646 132.858c0-2.856 4.416-5.17 9.863-5.17 5.447 0 9.863 2.314 9.863 5.17 0 2.855-4.416 5.17-9.863 5.17-5.447 0-9.863-2.315-9.863-5.17zm56.443 0c0-2.856 4.416-5.17 9.863-5.17 5.447 0 9.863 2.314 9.863 5.17 0 2.855-4.416 5.17-9.863 5.17-5.447 0-9.863-2.315-9.863-5.17z" fill-rule="evenodd"/><path fill="#000" d="M164.917 90.833c-8.121 12.132-29.745 18.73-50.576 15.433-20.831-3.297-34.434-15.47-31.816-28.473 2.618-13.002 20.647-22.817 42.17-22.955z" fill-rule="evenodd"/><path stroke="#000" stroke-linejoin="round" stroke-linecap="butt" d="M164.917 90.833c-8.121 12.132-29.745 18.73-50.576 15.433-20.831-3.297-34.434-15.47-31.816-28.473 2.618-13.002 20.647-22.817 42.17-22.955z"/><path fill="#000" d="M82.205 77.443V56.476c0-11.58 25.563-20.967 57.098-20.967 31.534 0 57.098 9.387 57.098 20.967v20.967z" fill-rule="evenodd"/><path fill="#000" d="M96.64 55.181c-8.227 9.234-1.24 24.71 10.255 36.848 11.495 12.139 44.122 27.007 58.714 35.982 14.593 8.976 23.72 19.483 28.84 17.872 5.12-1.612 1.366-16.846 1.88-27.539.516-10.693 7.888-22.998 1.209-36.618-6.68-13.62-24.466-40.678-41.282-45.102-16.816-4.424-51.39 9.323-59.617 18.557z" fill-rule="evenodd"/><path fill="#000" d="M154.414 119.066l28.725-40.41 22.834 77.04z" fill-rule="evenodd"/><path stroke="#000" stroke-linejoin="round" stroke-linecap="butt" d="M154.414 119.066l28.725-40.41 22.834 77.04z"/><path fill="#f9cb9c" d="M135.306 164.989c-7.74 0-14.015-4.633-14.015-10.347 0-5.714 6.275-10.346 14.015-10.346v5.173c-4.883 0-8.842 2.316-8.842 5.173s3.959 5.173 8.842 5.173z" fill-rule="evenodd"/><path fill="#c00" d="M159.29 181.558c0 2.853-10.738 5.166-23.985 5.166-13.246 0-23.984-2.313-23.984-5.166h2.583c0 1.427 9.582 2.583 21.401 2.583 11.82 0 21.402-1.156 21.402-2.583z" fill-rule="evenodd"/><path fill="#5b0f00" d="M118.466 198.684a1.165 1.165 0 1 1 2.33 0h.001a1.165 1.165 0 0 1-2.33 0z" fill-rule="evenodd"/><path fill="#ead1dc" fill-opacity=".354" d="M75.616 160.346c0-8.155 5.885-14.766 13.144-14.766 3.486 0 6.83 1.556 9.295 4.325s3.85 6.524 3.85 10.44c0 8.155-5.885 14.766-13.145 14.766-7.259 0-13.144-6.61-13.144-14.765zm93.09 0c0-8.155 5.885-14.766 13.145-14.766 3.486 0 6.829 1.556 9.294 4.325 2.465 2.769 3.85 6.524 3.85 10.44 0 8.155-5.885 14.766-13.144 14.766-7.26 0-13.145-6.61-13.145-14.765z" fill-rule="evenodd"/><path fill="#000" d="M83.731 51.123L63.133 69.982 47.466 92.32l-3.48 20.019 2.028 21.47 28.142-24.95 21.179-11.027zm110.628-2.015l18.08 21.286 12.752 24.123.951 20.297-4.697 21.049-24.803-28.273-19.635-13.588z" fill-rule="evenodd"/></g></svg>