<svg viewBox="0.0 0.0 1518.5931758530185 854.8162729658793" fill="none" stroke-linecap="square" stroke-miterlimit="10" xmlns="http://www.w3.org/2000/svg"><clipPath id="a"><path d="M0 0h1518.593v854.816H0V0z"/></clipPath><g clip-path="url(#a)"><path d="M0 0h1518.593v854.816H0z"/><path fill="#6fa8dc" fill-opacity=".831" d="M185.964 428.788H1312.11l-225.23 209.365H411.194z" fill-rule="evenodd"/><path fill="#cfe2f3" fill-opacity=".669" d="M190.965 426.381c0-12.502 58.797-24.493 163.455-33.333 104.66-8.84 246.607-13.807 394.617-13.807 308.215 0 558.072 21.105 558.072 47.14s-249.857 47.141-558.072 47.141c-308.215 0-558.072-21.106-558.072-47.14z" fill-rule="evenodd"/><path fill="#3c78d8" fill-opacity=".708" d="M412.17 638.151l336.867 202.947 336.867-202.947z" fill-rule="evenodd"/><path fill="#ebdfbc" d="M527.038 280.713c0-7.938 6.435-14.373 14.373-14.373h57.49a14.373 14.373 0 0 1 14.373 14.373v116.765c0 7.938-6.435 14.373-14.373 14.373h-57.49c-7.938 0-14.373-6.435-14.373-14.373z" fill-rule="evenodd"/><path fill="#ebdfbc" d="M510.589 392.062c0-15.82 23.267-28.645 51.969-28.645 28.7 0 51.968 12.825 51.968 28.645s-23.267 28.646-51.968 28.646c-28.702 0-51.969-12.825-51.969-28.646zm358.832-111.349c0-7.938 6.435-14.373 14.373-14.373h57.49a14.373 14.373 0 0 1 14.373 14.373v116.765c0 7.938-6.435 14.373-14.373 14.373h-57.49c-7.938 0-14.373-6.435-14.373-14.373z" fill-rule="evenodd"/><path fill="#ebdfbc" d="M852.972 392.062c0-15.82 23.267-28.645 51.969-28.645 28.701 0 51.968 12.825 51.968 28.645s-23.267 28.646-51.968 28.646c-28.702 0-51.969-12.825-51.969-28.646z" fill-rule="evenodd"/><path fill="#fff2cc" d="M488.39 100.742c0-24.576 19.923-44.5 44.5-44.5h447.504a44.5 44.5 0 0 1 44.5 44.5v177.993c0 24.577-19.923 44.5-44.5 44.5H532.89c-24.576 0-44.5-19.923-44.5-44.5z" fill-rule="evenodd"/><path fill="#fff2cc" d="M392.488 218.117l54.047-165.589 128.095 9.053-54.047 165.589zM985.685 82.809c0-16.769 13.594-30.362 30.362-30.362a30.362 30.362 0 0 1 30.362 30.362c0 16.768-13.593 30.362-30.362 30.362-16.768 0-30.362-13.594-30.362-30.362zm-612.501-2.808l-4.945-24.819c-2.731-13.707 3.664-26.532 14.283-28.645 10.62-2.114 21.443 7.285 24.174 20.992l4.945 24.819zm565.474 79.827c0-7.938 6.434-14.373 14.372-14.373h57.49a14.373 14.373 0 0 1 14.374 14.373v254.876c0 7.938-6.435 14.373-14.373 14.373h-57.49c-7.939 0-14.373-6.435-14.373-14.373z" fill-rule="evenodd"/><path fill="#fff2cc" d="M373.24 60.767h129.071v158.164h-129.07z" fill-rule="evenodd"/><path fill="#fff2cc" d="M342.195 180.325c0-22.778 21.23-41.237 47.417-41.228 26.188.009 47.418 18.481 47.418 41.26 0 22.778-21.23 41.237-47.418 41.228-26.187-.008-47.417-18.481-47.417-41.26z" fill-rule="evenodd"/><path fill="#000" d="M347.223 176.082c0-3.844 5.098-6.96 11.386-6.96 6.288 0 11.386 3.116 11.386 6.96 0 3.845-5.098 6.96-11.386 6.96-6.288 0-11.386-3.115-11.386-6.96z" fill-rule="evenodd"/><path stroke="#000" stroke-linejoin="round" stroke-linecap="butt" d="M347.223 176.082c0-3.844 5.098-6.96 11.386-6.96 6.288 0 11.386 3.116 11.386 6.96 0 3.845-5.098 6.96-11.386 6.96-6.288 0-11.386-3.115-11.386-6.96z"/><path fill="#fff2cc" d="M440.137 74.118l4.882-24.834c2.696-13.716 13.498-23.143 24.126-21.055 10.628 2.087 17.058 14.898 14.362 28.614l-4.882 24.834zM488.39 212.46c0-7.937 6.435-14.372 14.373-14.372h57.49a14.373 14.373 0 0 1 14.373 14.373v210.278c0 7.938-6.435 14.373-14.373 14.373h-57.49c-7.938 0-14.373-6.435-14.373-14.373z" fill-rule="evenodd"/><path fill="#fff2cc" d="M471.94 417.328c0-15.82 23.268-28.646 51.97-28.646 28.7 0 51.968 12.825 51.968 28.646 0 15.82-23.267 28.645-51.969 28.645-28.701 0-51.968-12.825-51.968-28.645zm449.016 0c0-15.82 23.267-28.646 51.969-28.646 28.701 0 51.968 12.825 51.968 28.646 0 15.82-23.267 28.645-51.968 28.645-28.702 0-51.969-12.825-51.969-28.645z" fill-rule="evenodd"/><path fill="#000" d="M437.734 110.883a6.96 6.96 0 1 1 13.921 0 6.96 6.96 0 0 1-13.921 0z" fill-rule="evenodd"/><path stroke="#000" stroke-linejoin="round" stroke-linecap="butt" d="M437.734 110.883a6.96 6.96 0 1 1 13.921 0 6.96 6.96 0 0 1-13.921 0z"/><path fill="#000" d="M381.734 110.883a6.96 6.96 0 1 1 13.921 0 6.96 6.96 0 0 1-13.921 0z" fill-rule="evenodd"/><path stroke="#000" stroke-linejoin="round" stroke-linecap="butt" d="M381.734 110.883a6.96 6.96 0 1 1 13.921 0 6.96 6.96 0 0 1-13.921 0z"/><path fill="#ebdfbc" d="M449.051 60.727l2.347-11.906c1.296-6.575 8.106-10.77 15.212-9.37 7.106 1.4 11.816 7.866 10.52 14.441l-2.347 11.906zm-71.797 6.133l-3.638-11.574c-2.01-6.393 1.967-13.33 8.882-15.496 6.914-2.166 14.148 1.26 16.157 7.653l3.638 11.575z" fill-rule="evenodd"/><path fill="#fff" d="M-.001 105.594l12.497-2.683 2.684-12.498 2.683 12.498 12.498 2.683-12.498 2.684-2.683 12.498-2.684-12.498zm155.603-81.435l12.498-2.684 2.683-12.497 2.684 12.497 12.498 2.684-12.498 2.683-2.684 12.498-2.683-12.498zm-18.165 262.748l12.497-2.684 2.684-12.497 2.684 12.497 12.497 2.684-12.497 2.683-2.684 12.498-2.684-12.498zm89.391-123.192l12.498-2.683 2.683-12.498 2.684 12.498 12.497 2.683-12.497 2.684-2.684 12.497-2.683-12.497zM20.122 364.06l12.497-2.685 2.684-12.497 2.684 12.497 12.497 2.684-12.497 2.684-2.684 12.497-2.684-12.497zm372.838-61.19l12.497-2.684 2.683-12.497 2.684 12.497 12.498 2.684-12.498 2.684-2.684 12.497-2.683-12.497zM600.033 15.18l12.497-2.684L615.214 0l2.684 12.497 12.497 2.684-12.497 2.683-2.684 12.498-2.684-12.498zm489.252 271.727l12.497-2.684 2.684-12.497 2.684 12.497 12.497 2.684-12.497 2.683-2.684 12.498-2.684-12.498zm24-120l12.497-2.684 2.684-12.497 2.684 12.497 12.497 2.684-12.497 2.683-2.684 12.498-2.684-12.498zm128 16l12.497-2.684 2.684-12.497 2.684 12.497 12.497 2.684-12.497 2.683-2.684 12.498-2.684-12.498zm88 256l12.497-2.684 2.684-12.497 2.684 12.497 12.497 2.684-12.497 2.683-2.684 12.498-2.684-12.498zm80-97.266l12.497-2.683 2.684-12.498 2.684 12.498 12.497 2.683-12.497 2.684-2.684 12.498-2.684-12.498zm48-272l12.497-2.683 2.684-12.498 2.684 12.498 12.497 2.683-12.497 2.684-2.684 12.498-2.684-12.498zm-256-24l12.497-2.683 2.684-12.498 2.684 12.498 12.497 2.683-12.497 2.684-2.684 12.498-2.684-12.498z" fill-rule="evenodd"/><path fill="#1f1f1f" d="M476.266 428.481V416.45l-4.441 12.031zm-3.492-5.704v-12.032l-4.441 12.032zm7.933 11.715V422.46l-4.441 12.032zm444.318-5.694v-12.032l-4.44 12.032zm-3.492-5.705v-12.031l-4.44 12.031zm7.933 11.715v-12.031l-4.441 12.031z" fill-rule="evenodd"/><path fill="#000" d="M857.509 403.145v-12.032l-4.441 12.032zm-3.492-5.705v-12.03l-4.441 12.031zm7.933 11.715v-12.031l-4.441 12.031z" fill-rule="evenodd"/></g></svg>